<mxfile host="app.diagrams.net" modified="2024-05-16T08:26:16.468Z" agent="Mozilla/5.0 (Windows NT 10.0; Win64; x64) AppleWebKit/537.36 (KHTML, like Gecko) Chrome/124.0.0.0 Safari/537.36" etag="vfTCijj2DllMasoBE3Re" version="24.4.2" type="google">
  <diagram name="PÃ¡gina-1" id="5DUf62zco8oKxQPgqo2T">
    <mxGraphModel grid="1" page="1" gridSize="10" guides="1" tooltips="1" connect="1" arrows="1" fold="1" pageScale="1" pageWidth="827" pageHeight="1169" math="0" shadow="0">
      <root>
        <mxCell id="0" />
        <mxCell id="1" parent="0" />
        <mxCell id="s-qC-6oReJpVZR9Ht5EQ-1" value="" style="rounded=0;whiteSpace=wrap;html=1;strokeColor=#FFF2F2;" vertex="1" parent="1">
          <mxGeometry x="80" y="-40" width="610" height="920" as="geometry" />
        </mxCell>
        <mxCell id="mfFKOu7HaPZzxewV0sYN-1" value="Free Bezeroa" style="shape=umlActor;verticalLabelPosition=bottom;verticalAlign=top;html=1;outlineConnect=0;" vertex="1" parent="1">
          <mxGeometry x="170" y="115" width="30" height="60" as="geometry" />
        </mxCell>
        <mxCell id="mfFKOu7HaPZzxewV0sYN-2" value="Premium Bezeroa" style="shape=umlActor;verticalLabelPosition=bottom;verticalAlign=top;html=1;outlineConnect=0;" vertex="1" parent="1">
          <mxGeometry x="170" y="225" width="30" height="60" as="geometry" />
        </mxCell>
        <mxCell id="mfFKOu7HaPZzxewV0sYN-3" value="" style="rounded=0;whiteSpace=wrap;html=1;" vertex="1" parent="1">
          <mxGeometry x="240" y="10" width="320" height="360" as="geometry" />
        </mxCell>
        <mxCell id="mfFKOu7HaPZzxewV0sYN-4" style="edgeStyle=orthogonalEdgeStyle;rounded=0;orthogonalLoop=1;jettySize=auto;html=1;entryX=0;entryY=0.5;entryDx=0;entryDy=0;endArrow=none;endFill=0;" edge="1" parent="1" source="mfFKOu7HaPZzxewV0sYN-5" target="mfFKOu7HaPZzxewV0sYN-9">
          <mxGeometry relative="1" as="geometry">
            <mxPoint x="680" y="200" as="targetPoint" />
          </mxGeometry>
        </mxCell>
        <mxCell id="mfFKOu7HaPZzxewV0sYN-5" value="&lt;div&gt;Kontu ezarpenak&lt;/div&gt;" style="ellipse;whiteSpace=wrap;html=1;" vertex="1" parent="1">
          <mxGeometry x="260" y="225" width="100" height="60" as="geometry" />
        </mxCell>
        <mxCell id="mfFKOu7HaPZzxewV0sYN-6" style="rounded=0;orthogonalLoop=1;jettySize=auto;html=1;entryX=0;entryY=0;entryDx=0;entryDy=0;endArrow=none;endFill=0;" edge="1" parent="1" target="mfFKOu7HaPZzxewV0sYN-5">
          <mxGeometry relative="1" as="geometry">
            <mxPoint x="210" y="160" as="sourcePoint" />
          </mxGeometry>
        </mxCell>
        <mxCell id="mfFKOu7HaPZzxewV0sYN-7" style="rounded=0;orthogonalLoop=1;jettySize=auto;html=1;entryX=0;entryY=1;entryDx=0;entryDy=0;endArrow=none;endFill=0;" edge="1" parent="1" source="mfFKOu7HaPZzxewV0sYN-2" target="mfFKOu7HaPZzxewV0sYN-5">
          <mxGeometry relative="1" as="geometry" />
        </mxCell>
        <mxCell id="mfFKOu7HaPZzxewV0sYN-8" style="rounded=0;orthogonalLoop=1;jettySize=auto;html=1;endArrow=open;endFill=0;dashed=1;entryX=0.5;entryY=0;entryDx=0;entryDy=0;" edge="1" parent="1" source="mfFKOu7HaPZzxewV0sYN-9" target="mfFKOu7HaPZzxewV0sYN-10">
          <mxGeometry relative="1" as="geometry">
            <mxPoint x="680" y="280" as="targetPoint" />
          </mxGeometry>
        </mxCell>
        <mxCell id="mfFKOu7HaPZzxewV0sYN-9" value="Login" style="ellipse;whiteSpace=wrap;html=1;" vertex="1" parent="1">
          <mxGeometry x="380" y="230" width="80" height="50" as="geometry" />
        </mxCell>
        <mxCell id="mfFKOu7HaPZzxewV0sYN-10" value="Erregistroa" style="ellipse;whiteSpace=wrap;html=1;" vertex="1" parent="1">
          <mxGeometry x="450" y="300" width="80" height="50" as="geometry" />
        </mxCell>
        <mxCell id="mfFKOu7HaPZzxewV0sYN-11" value="&lt;font style=&quot;font-size: 9px;&quot;&gt;&amp;lt;&amp;lt;includes&amp;gt;&amp;gt;&lt;/font&gt;" style="text;html=1;align=center;verticalAlign=middle;resizable=0;points=[];autosize=1;strokeColor=none;fillColor=none;" vertex="1" parent="1">
          <mxGeometry x="460" y="260" width="80" height="30" as="geometry" />
        </mxCell>
        <mxCell id="cMSkaFxDw1XHt94s9FTv-2" style="edgeStyle=orthogonalEdgeStyle;rounded=0;orthogonalLoop=1;jettySize=auto;html=1;entryX=0;entryY=0.5;entryDx=0;entryDy=0;endArrow=none;endFill=0;" edge="1" parent="1" source="mfFKOu7HaPZzxewV0sYN-12" target="cMSkaFxDw1XHt94s9FTv-1">
          <mxGeometry relative="1" as="geometry" />
        </mxCell>
        <mxCell id="mfFKOu7HaPZzxewV0sYN-12" value="&lt;div&gt;Musika deskubritu&lt;/div&gt;" style="ellipse;whiteSpace=wrap;html=1;" vertex="1" parent="1">
          <mxGeometry x="270" y="55" width="120" height="60" as="geometry" />
        </mxCell>
        <mxCell id="mfFKOu7HaPZzxewV0sYN-13" style="rounded=0;orthogonalLoop=1;jettySize=auto;html=1;entryX=0.042;entryY=0.733;entryDx=0;entryDy=0;endArrow=none;endFill=0;entryPerimeter=0;" edge="1" parent="1" target="mfFKOu7HaPZzxewV0sYN-12">
          <mxGeometry relative="1" as="geometry">
            <mxPoint x="210" y="130" as="sourcePoint" />
            <mxPoint x="305" y="244" as="targetPoint" />
          </mxGeometry>
        </mxCell>
        <mxCell id="mfFKOu7HaPZzxewV0sYN-14" style="rounded=0;orthogonalLoop=1;jettySize=auto;html=1;endArrow=none;endFill=0;" edge="1" parent="1" target="mfFKOu7HaPZzxewV0sYN-12">
          <mxGeometry relative="1" as="geometry">
            <mxPoint x="210" y="230" as="sourcePoint" />
            <mxPoint x="305" y="286" as="targetPoint" />
          </mxGeometry>
        </mxCell>
        <mxCell id="mfFKOu7HaPZzxewV0sYN-15" value="MIMI-Sprint2" style="text;html=1;align=center;verticalAlign=middle;whiteSpace=wrap;rounded=0;" vertex="1" parent="1">
          <mxGeometry x="250" y="20" width="90" height="20" as="geometry" />
        </mxCell>
        <mxCell id="mfFKOu7HaPZzxewV0sYN-16" value="Free Bezeroa" style="shape=umlActor;verticalLabelPosition=bottom;verticalAlign=top;html=1;outlineConnect=0;" vertex="1" parent="1">
          <mxGeometry x="160" y="729" width="30" height="60" as="geometry" />
        </mxCell>
        <mxCell id="mfFKOu7HaPZzxewV0sYN-17" value="Premium Bezeroa" style="shape=umlActor;verticalLabelPosition=bottom;verticalAlign=top;html=1;outlineConnect=0;" vertex="1" parent="1">
          <mxGeometry x="160" y="630" width="30" height="60" as="geometry" />
        </mxCell>
        <mxCell id="mfFKOu7HaPZzxewV0sYN-18" value="" style="rounded=0;whiteSpace=wrap;html=1;" vertex="1" parent="1">
          <mxGeometry x="240" y="430" width="320" height="360" as="geometry" />
        </mxCell>
        <mxCell id="mfFKOu7HaPZzxewV0sYN-19" style="rounded=0;orthogonalLoop=1;jettySize=auto;html=1;entryX=0;entryY=0.5;entryDx=0;entryDy=0;endArrow=none;endFill=0;" edge="1" parent="1" source="mfFKOu7HaPZzxewV0sYN-20" target="mfFKOu7HaPZzxewV0sYN-24">
          <mxGeometry relative="1" as="geometry">
            <mxPoint x="680" y="620" as="targetPoint" />
          </mxGeometry>
        </mxCell>
        <mxCell id="mfFKOu7HaPZzxewV0sYN-20" value="&lt;div&gt;Podkast deskubritu&lt;/div&gt;" style="ellipse;whiteSpace=wrap;html=1;" vertex="1" parent="1">
          <mxGeometry x="270" y="660" width="110" height="60" as="geometry" />
        </mxCell>
        <mxCell id="mfFKOu7HaPZzxewV0sYN-21" style="rounded=0;orthogonalLoop=1;jettySize=auto;html=1;entryX=0;entryY=1;entryDx=0;entryDy=0;endArrow=none;endFill=0;" edge="1" parent="1" target="mfFKOu7HaPZzxewV0sYN-20">
          <mxGeometry relative="1" as="geometry">
            <mxPoint x="190" y="770" as="sourcePoint" />
          </mxGeometry>
        </mxCell>
        <mxCell id="mfFKOu7HaPZzxewV0sYN-22" style="rounded=0;orthogonalLoop=1;jettySize=auto;html=1;entryX=0;entryY=0.5;entryDx=0;entryDy=0;endArrow=none;endFill=0;" edge="1" parent="1" source="mfFKOu7HaPZzxewV0sYN-17" target="mfFKOu7HaPZzxewV0sYN-20">
          <mxGeometry relative="1" as="geometry" />
        </mxCell>
        <mxCell id="mfFKOu7HaPZzxewV0sYN-24" value="Erreprodukzioa" style="ellipse;whiteSpace=wrap;html=1;" vertex="1" parent="1">
          <mxGeometry x="390" y="710" width="100" height="50" as="geometry" />
        </mxCell>
        <mxCell id="mfFKOu7HaPZzxewV0sYN-34" style="rounded=0;orthogonalLoop=1;jettySize=auto;html=1;dashed=1;dashPattern=8 8;endArrow=open;endFill=0;exitX=1;exitY=0;exitDx=0;exitDy=0;entryX=0;entryY=0.5;entryDx=0;entryDy=0;" edge="1" parent="1" source="mfFKOu7HaPZzxewV0sYN-27" target="mfFKOu7HaPZzxewV0sYN-38">
          <mxGeometry relative="1" as="geometry">
            <mxPoint x="710" y="310" as="targetPoint" />
          </mxGeometry>
        </mxCell>
        <mxCell id="mfFKOu7HaPZzxewV0sYN-27" value="&lt;div&gt;Musika kudeatu&amp;nbsp;&lt;/div&gt;(Abesti, Abeslari, Album)" style="ellipse;whiteSpace=wrap;html=1;" vertex="1" parent="1">
          <mxGeometry x="260" y="520" width="120" height="60" as="geometry" />
        </mxCell>
        <mxCell id="mfFKOu7HaPZzxewV0sYN-28" style="rounded=0;orthogonalLoop=1;jettySize=auto;html=1;entryX=0;entryY=0.5;entryDx=0;entryDy=0;endArrow=none;endFill=0;" edge="1" parent="1" source="mfFKOu7HaPZzxewV0sYN-43" target="mfFKOu7HaPZzxewV0sYN-27">
          <mxGeometry relative="1" as="geometry">
            <mxPoint x="210" y="550" as="sourcePoint" />
            <mxPoint x="305" y="664" as="targetPoint" />
          </mxGeometry>
        </mxCell>
        <mxCell id="mfFKOu7HaPZzxewV0sYN-30" value="MIMI-Sprint3" style="text;html=1;align=center;verticalAlign=middle;whiteSpace=wrap;rounded=0;" vertex="1" parent="1">
          <mxGeometry x="250" y="440" width="90" height="20" as="geometry" />
        </mxCell>
        <mxCell id="mfFKOu7HaPZzxewV0sYN-31" value="&lt;font style=&quot;font-size: 9px;&quot;&gt;&amp;lt;&amp;lt;extends&amp;gt;&amp;gt;&lt;/font&gt;" style="text;html=1;align=center;verticalAlign=middle;resizable=0;points=[];autosize=1;strokeColor=none;fillColor=none;" vertex="1" parent="1">
          <mxGeometry x="360" y="510" width="80" height="30" as="geometry" />
        </mxCell>
        <mxCell id="mfFKOu7HaPZzxewV0sYN-33" value="&lt;font style=&quot;font-size: 9px;&quot;&gt;&amp;lt;&amp;lt;extends&amp;gt;&amp;gt;&lt;/font&gt;" style="text;html=1;align=center;verticalAlign=middle;resizable=0;points=[];autosize=1;strokeColor=none;fillColor=none;" vertex="1" parent="1">
          <mxGeometry x="360" y="560" width="80" height="30" as="geometry" />
        </mxCell>
        <mxCell id="mfFKOu7HaPZzxewV0sYN-35" style="rounded=0;orthogonalLoop=1;jettySize=auto;html=1;dashed=1;dashPattern=8 8;endArrow=open;endFill=0;exitX=1;exitY=0.5;exitDx=0;exitDy=0;entryX=0;entryY=0.5;entryDx=0;entryDy=0;" edge="1" parent="1" source="mfFKOu7HaPZzxewV0sYN-27" target="mfFKOu7HaPZzxewV0sYN-39">
          <mxGeometry relative="1" as="geometry">
            <mxPoint x="730" y="320" as="targetPoint" />
            <mxPoint x="385" y="517" as="sourcePoint" />
          </mxGeometry>
        </mxCell>
        <mxCell id="mfFKOu7HaPZzxewV0sYN-36" style="rounded=0;orthogonalLoop=1;jettySize=auto;html=1;dashed=1;dashPattern=8 8;endArrow=open;endFill=0;exitX=1;exitY=0.5;exitDx=0;exitDy=0;entryX=0;entryY=0.5;entryDx=0;entryDy=0;" edge="1" parent="1" source="mfFKOu7HaPZzxewV0sYN-27" target="mfFKOu7HaPZzxewV0sYN-40">
          <mxGeometry relative="1" as="geometry">
            <mxPoint x="690" y="610" as="targetPoint" />
            <mxPoint x="385" y="527" as="sourcePoint" />
          </mxGeometry>
        </mxCell>
        <mxCell id="mfFKOu7HaPZzxewV0sYN-37" style="rounded=0;orthogonalLoop=1;jettySize=auto;html=1;dashed=1;dashPattern=8 8;endArrow=open;endFill=0;exitX=1;exitY=1;exitDx=0;exitDy=0;entryX=0;entryY=0.5;entryDx=0;entryDy=0;" edge="1" parent="1" source="mfFKOu7HaPZzxewV0sYN-27" target="mfFKOu7HaPZzxewV0sYN-42">
          <mxGeometry relative="1" as="geometry">
            <mxPoint x="630" y="750" as="targetPoint" />
            <mxPoint x="395" y="537" as="sourcePoint" />
          </mxGeometry>
        </mxCell>
        <mxCell id="mfFKOu7HaPZzxewV0sYN-38" value="Musika sortu" style="ellipse;whiteSpace=wrap;html=1;" vertex="1" parent="1">
          <mxGeometry x="420" y="450" width="90" height="50" as="geometry" />
        </mxCell>
        <mxCell id="mfFKOu7HaPZzxewV0sYN-39" value="Musika irakurri" style="ellipse;whiteSpace=wrap;html=1;" vertex="1" parent="1">
          <mxGeometry x="450" y="500" width="90" height="50" as="geometry" />
        </mxCell>
        <mxCell id="mfFKOu7HaPZzxewV0sYN-40" value="Musika aldatu" style="ellipse;whiteSpace=wrap;html=1;" vertex="1" parent="1">
          <mxGeometry x="450" y="550" width="90" height="50" as="geometry" />
        </mxCell>
        <mxCell id="mfFKOu7HaPZzxewV0sYN-42" value="Musika ezabatu" style="ellipse;whiteSpace=wrap;html=1;" vertex="1" parent="1">
          <mxGeometry x="420" y="600" width="90" height="50" as="geometry" />
        </mxCell>
        <mxCell id="mfFKOu7HaPZzxewV0sYN-43" value="Admin&lt;div&gt;&lt;br&gt;&lt;/div&gt;" style="shape=umlActor;verticalLabelPosition=bottom;verticalAlign=top;html=1;outlineConnect=0;" vertex="1" parent="1">
          <mxGeometry x="160" y="520" width="30" height="60" as="geometry" />
        </mxCell>
        <mxCell id="cMSkaFxDw1XHt94s9FTv-1" value="Erreprodukzioa" style="ellipse;whiteSpace=wrap;html=1;" vertex="1" parent="1">
          <mxGeometry x="430" y="60" width="100" height="50" as="geometry" />
        </mxCell>
      </root>
    </mxGraphModel>
  </diagram>
</mxfile>
